<svg width="1235" height="532" viewBox="0 0 1235 532" fill="none" xmlns="http://www.w3.org/2000/svg">
<path class="path" d="M634 527C778.146 527 895 410.146 895 266C895 121.854 778.146 5 634 5C489.854 5 373 121.854 373 266C373 410.146 489.854 527 634 527ZM634 530C779.803 530 898 411.803 898 266C898 120.197 779.803 2 634 2C488.197 2 370 120.197 370 266C370 411.803 488.197 530 634 530Z" stroke="black" stroke-width="3"/>
<path class="path" d="M291 225H2V222H291V225Z" stroke="black" stroke-width="3"/>
<path class="path" d="M1181 223H892V220H1181V223Z" stroke="black" stroke-width="3"/>
<path class="path" d="M372 307H83V304H372V307Z" stroke="black" stroke-width="3"/>
<path class="path" d="M1233 307H944V304H1233V307Z" stroke="black" stroke-width="3"/>
</svg>
