<svg width="157" height="205" viewBox="0 0 157 205" fill="none" xmlns="http://www.w3.org/2000/svg">
<path d="M107 204L136 199L118 157.5L123 149C123 149 58.5 154.5 55.5 132.5C54.2859 123.596 47.0675 113.833 52 102C59.2551 84.5952 62.5 75.5 62.5 75.5L97.0001 53L87.0001 1.5L55.5001 10.5C55.5001 10.5 20.5523 60.8735 5.00003 96C-5.54332 119.813 7.02013 131.283 4.99999 143C-8.10623e-06 172 107 204 107 204Z" fill="#939393" stroke="black"/>
<path d="M117.5 28C117.5 42.049 105.223 53.5 90 53.5C74.7766 53.5 62.5 42.049 62.5 28C62.5 13.951 74.7766 2.5 90 2.5C105.223 2.5 117.5 13.951 117.5 28Z" fill="#C4C4C4" stroke="black"/>
<path d="M156.5 174C156.5 188.049 144.223 199.5 129 199.5C113.777 199.5 101.5 188.049 101.5 174C101.5 159.951 113.777 148.5 129 148.5C144.223 148.5 156.5 159.951 156.5 174Z" fill="#C4C4C4" stroke="black"/>
</svg>
